<?xml version="1.0" standalone="no"?>
<!DOCTYPE svg PUBLIC "-//W3C//DTD SVG 20010904//EN"
 "http://www.w3.org/TR/2001/REC-SVG-20010904/DTD/svg10.dtd">
<svg version="1.0" xmlns="http://www.w3.org/2000/svg"
 width="700.000000pt" height="700.000000pt" viewBox="0 0 700.000000 700.000000"
 preserveAspectRatio="xMidYMid meet">
<metadata>
Created by potrace 1.14, written by Peter Selinger 2001-2017
</metadata>
<g transform="translate(0.000000,700.000000) scale(0.100000,-0.100000)"
fill="#000000" stroke="none">
<path d="M3353 6981 c-134 -37 -229 -100 -324 -218 -74 -92 -106 -122 -178
-170 -171 -111 -372 -119 -594 -24 -138 59 -327 51 -469 -19 -186 -93 -301
-255 -328 -468 -26 -195 -117 -348 -264 -443 -80 -53 -151 -77 -285 -100 -215
-36 -359 -136 -455 -315 -68 -127 -85 -331 -36 -449 65 -158 80 -226 75 -340
-7 -178 -96 -344 -241 -450 -169 -124 -259 -307 -250 -509 9 -187 80 -325 230
-444 106 -83 152 -135 200 -226 55 -104 78 -267 52 -378 -7 -29 -13 -57 -14
-63 -2 -5 -16 -44 -32 -86 -37 -98 -42 -117 -46 -218 -7 -169 61 -334 186
-449 75 -70 209 -135 301 -147 72 -9 116 -17 162 -30 211 -61 389 -272 412
-487 19 -184 93 -325 225 -429 152 -119 324 -154 525 -106 11 3 50 17 85 31
36 15 88 33 116 40 90 23 301 7 339 -26 5 -4 15 -8 23 -8 20 0 120 -63 162
-102 20 -18 62 -66 94 -106 32 -40 81 -90 109 -112 264 -210 649 -155 850 121
60 83 133 145 223 188 94 44 150 56 264 55 89 -1 117 -5 180 -28 137 -51 222
-73 289 -75 240 -6 457 132 556 354 28 63 29 71 49 195 17 104 44 179 95 257
87 135 259 242 413 258 327 32 558 279 555 595 0 86 -10 127 -72 300 -84 235
0 505 205 659 176 133 264 312 255 516 -4 101 -23 174 -67 257 -31 59 -118
156 -178 200 -81 59 -142 131 -187 223 -46 92 -58 149 -57 260 1 103 8 132 64
289 67 187 46 367 -62 529 -97 146 -233 227 -428 257 -167 26 -261 70 -364
173 -73 73 -135 174 -152 247 -4 19 -8 37 -9 40 -2 9 -16 94 -21 125 -20 131
-107 275 -219 361 -173 132 -370 157 -591 75 -60 -23 -131 -45 -159 -50 -94
-18 -275 0 -310 31 -5 4 -15 8 -21 8 -20 0 -125 65 -165 102 -19 18 -63 68
-98 111 -61 75 -134 138 -196 170 -124 62 -295 82 -422 48z"/>
</g>
</svg>
